<?xml version="1.0" encoding="utf-8"?>
<!-- Generator: Adobe Illustrator 19.1.0, SVG Export Plug-In . SVG Version: 6.00 Build 0)  -->
<!DOCTYPE svg PUBLIC "-//W3C//DTD SVG 1.1//EN" "http://www.w3.org/Graphics/SVG/1.1/DTD/svg11.dtd">
<svg version="1.1" id="Ebene_1" xmlns="http://www.w3.org/2000/svg" xmlns:xlink="http://www.w3.org/1999/xlink" x="0px" y="0px"
	 viewBox="0 0 16 16" style="enable-background:new 0 0 16 16;" xml:space="preserve">
<style type="text/css">
	.st0{fill:#FFFFFF;}
	.st1{fill:#FFD104;}
	.st2{enable-background:new    ;}
	.st3{fill:#1A171B;}
</style>
<g>
	<path class="st0" d="M14.6,11.9L8.2,0.7L1.8,11.9H14.6z"/>
	<path class="st1" d="M15.2,12.2L8.2,0L1.1,12.2H15.2z M6.3,4.9l5.6,3.2l-5.6,3.2L6.3,4.9z"/>
</g>
<g id="XMLID_403_" class="st2">
	<g>
		<polygon id="XMLID_9_" class="st3" points="16,12.8 12.1,10.5 12.1,12.3 9.4,12.3 9.4,13.3 12.1,13.3 12.1,15 		"/>
	</g>
</g>
<g id="XMLID_168_">
	<path id="XMLID_178_" d="M0,16V7.4c1.5,0,3.1-0.1,4.6,0c3,0.3,3.3,4.3,0.2,4.8c1.4,0.8,2.1,2.5,3,3.8c-1.6,0-2.2,0-2.2,0
		c-0.9-1.3-2-3.7-3.8-3.6V16H0z M1.7,11c1,0,3.5,0.5,3.5-1.1c0-1.5-2.5-1.1-3.5-1.1V11z"/>
</g>
</svg>
