<?xml version="1.0" encoding="utf-8"?>
<!-- Generator: Adobe Illustrator 19.1.0, SVG Export Plug-In . SVG Version: 6.00 Build 0)  -->
<!DOCTYPE svg PUBLIC "-//W3C//DTD SVG 1.1//EN" "http://www.w3.org/Graphics/SVG/1.1/DTD/svg11.dtd">
<svg version="1.1" id="Ebene_1" xmlns="http://www.w3.org/2000/svg" xmlns:xlink="http://www.w3.org/1999/xlink" x="0px" y="0px"
	 viewBox="0 0 16 16" style="enable-background:new 0 0 16 16;" xml:space="preserve">
<style type="text/css">
	.st0{fill:#FFFFFF;}
	.st1{fill:#FFD104;}
</style>
<g>
	<path class="st0" d="M13.5,11.9L7.1,0.7L0.7,11.9H13.5z"/>
	<path class="st1" d="M14.1,12.2L7.1,0L0,12.2H14.1z M5.2,4.9l5.6,3.2l-5.6,3.2L5.2,4.9z"/>
</g>
<g id="XMLID_168_">
	<path id="XMLID_178_" d="M8.2,16V7.4c1.5,0,3.1-0.1,4.6,0c3,0.3,3.3,4.3,0.2,4.8c1.4,0.8,2.1,2.5,3,3.8c-1.6,0-2.2,0-2.2,0
		c-0.9-1.3-2-3.7-3.8-3.6V16C10,16,8.2,16,8.2,16z M9.9,11c1,0,3.5,0.5,3.5-1.1c0-1.5-2.5-1.1-3.5-1.1V11z"/>
</g>
</svg>
